<mxfile host="app.diagrams.net" modified="2023-01-12T09:38:01.003Z" agent="5.0 (X11)" version="20.8.4" etag="EyWEUXU1LeknqEib8MgC" type="github">
  <diagram id="TMPDCf65G19q0RPva3cL" name="Page-1">
    <mxGraphModel dx="758" dy="1315" grid="1" gridSize="10" guides="1" tooltips="1" connect="1" arrows="1" fold="1" page="1" pageScale="1" pageWidth="850" pageHeight="1100" math="0" shadow="0">
      <root>
        <mxCell id="0" />
        <mxCell id="1" parent="0" />
        <mxCell id="d-e6UaInQPLfio6FKALA-2" value="&lt;font style=&quot;font-size: 22px;&quot;&gt;Run() ::Robot_M&lt;/font&gt;" style="text;html=1;strokeColor=none;fillColor=none;align=center;verticalAlign=middle;whiteSpace=wrap;rounded=0;" vertex="1" parent="1">
          <mxGeometry x="20" y="20" width="290" height="30" as="geometry" />
        </mxCell>
        <mxCell id="d-e6UaInQPLfio6FKALA-12" value="First Run" style="swimlane;whiteSpace=wrap;html=1;fontSize=22;startSize=23;dashed=1;" vertex="1" parent="1">
          <mxGeometry x="80" y="257" width="200" height="243" as="geometry" />
        </mxCell>
        <mxCell id="d-e6UaInQPLfio6FKALA-1" value="SetParameter" style="rounded=0;whiteSpace=wrap;html=1;" vertex="1" parent="d-e6UaInQPLfio6FKALA-12">
          <mxGeometry x="35" y="40" width="130" height="40" as="geometry" />
        </mxCell>
        <mxCell id="d-e6UaInQPLfio6FKALA-4" value="GenerateSwarm" style="rounded=0;whiteSpace=wrap;html=1;" vertex="1" parent="d-e6UaInQPLfio6FKALA-12">
          <mxGeometry x="22" y="112" width="156" height="48" as="geometry" />
        </mxCell>
        <mxCell id="d-e6UaInQPLfio6FKALA-5" style="edgeStyle=orthogonalEdgeStyle;rounded=0;orthogonalLoop=1;jettySize=auto;html=1;exitX=0.5;exitY=1;exitDx=0;exitDy=0;fontSize=22;" edge="1" parent="d-e6UaInQPLfio6FKALA-12" source="d-e6UaInQPLfio6FKALA-1" target="d-e6UaInQPLfio6FKALA-4">
          <mxGeometry relative="1" as="geometry" />
        </mxCell>
        <mxCell id="d-e6UaInQPLfio6FKALA-13" value="!First Run &amp;amp;&amp;amp; !Goal" style="swimlane;whiteSpace=wrap;html=1;fontSize=22;dashed=1;" vertex="1" parent="1">
          <mxGeometry x="340" y="257" width="260" height="246" as="geometry" />
        </mxCell>
        <mxCell id="d-e6UaInQPLfio6FKALA-6" value="SetParameter" style="rounded=0;whiteSpace=wrap;html=1;" vertex="1" parent="d-e6UaInQPLfio6FKALA-13">
          <mxGeometry x="67" y="114.5" width="130" height="40" as="geometry" />
        </mxCell>
        <mxCell id="d-e6UaInQPLfio6FKALA-7" value="GenerateSwarm" style="rounded=0;whiteSpace=wrap;html=1;" vertex="1" parent="d-e6UaInQPLfio6FKALA-13">
          <mxGeometry x="67" y="183.5" width="130" height="40" as="geometry" />
        </mxCell>
        <mxCell id="d-e6UaInQPLfio6FKALA-10" style="edgeStyle=orthogonalEdgeStyle;rounded=0;orthogonalLoop=1;jettySize=auto;html=1;exitX=0.5;exitY=1;exitDx=0;exitDy=0;fontSize=22;" edge="1" parent="d-e6UaInQPLfio6FKALA-13" source="d-e6UaInQPLfio6FKALA-6" target="d-e6UaInQPLfio6FKALA-7">
          <mxGeometry relative="1" as="geometry" />
        </mxCell>
        <mxCell id="d-e6UaInQPLfio6FKALA-9" style="edgeStyle=orthogonalEdgeStyle;rounded=0;orthogonalLoop=1;jettySize=auto;html=1;exitX=0.5;exitY=1;exitDx=0;exitDy=0;fontSize=22;" edge="1" parent="d-e6UaInQPLfio6FKALA-13" source="d-e6UaInQPLfio6FKALA-8" target="d-e6UaInQPLfio6FKALA-6">
          <mxGeometry relative="1" as="geometry" />
        </mxCell>
        <mxCell id="d-e6UaInQPLfio6FKALA-8" value="TerminateSwarm" style="rounded=0;whiteSpace=wrap;html=1;" vertex="1" parent="d-e6UaInQPLfio6FKALA-13">
          <mxGeometry x="67" y="44.5" width="130" height="40" as="geometry" />
        </mxCell>
        <mxCell id="d-e6UaInQPLfio6FKALA-19" style="edgeStyle=orthogonalEdgeStyle;rounded=0;orthogonalLoop=1;jettySize=auto;html=1;exitX=0.5;exitY=1;exitDx=0;exitDy=0;fontSize=22;" edge="1" parent="1" source="d-e6UaInQPLfio6FKALA-17" target="d-e6UaInQPLfio6FKALA-12">
          <mxGeometry relative="1" as="geometry" />
        </mxCell>
        <mxCell id="d-e6UaInQPLfio6FKALA-20" style="edgeStyle=orthogonalEdgeStyle;rounded=0;orthogonalLoop=1;jettySize=auto;html=1;fontSize=22;" edge="1" parent="1" source="d-e6UaInQPLfio6FKALA-17" target="d-e6UaInQPLfio6FKALA-13">
          <mxGeometry relative="1" as="geometry">
            <mxPoint x="470" y="220" as="targetPoint" />
          </mxGeometry>
        </mxCell>
        <mxCell id="d-e6UaInQPLfio6FKALA-17" value="start" style="rhombus;whiteSpace=wrap;html=1;fontSize=22;" vertex="1" parent="1">
          <mxGeometry x="204" y="70" width="230" height="80" as="geometry" />
        </mxCell>
        <mxCell id="d-e6UaInQPLfio6FKALA-21" value="전환각에 따른 속도 조절" style="rounded=0;whiteSpace=wrap;html=1;" vertex="1" parent="1">
          <mxGeometry x="210" y="560" width="200" height="40" as="geometry" />
        </mxCell>
        <mxCell id="d-e6UaInQPLfio6FKALA-22" value="local map 장애물 분포도 확인" style="rounded=0;whiteSpace=wrap;html=1;" vertex="1" parent="1">
          <mxGeometry x="210" y="640" width="200" height="40" as="geometry" />
        </mxCell>
      </root>
    </mxGraphModel>
  </diagram>
</mxfile>
